<mxfile host="Electron" modified="2024-02-12T08:43:25.895Z" agent="Mozilla/5.0 (Windows NT 10.0; Win64; x64) AppleWebKit/537.36 (KHTML, like Gecko) draw.io/23.0.2 Chrome/120.0.6099.109 Electron/28.1.0 Safari/537.36" etag="Ai702FHDeu8q-PzOfjn_" version="23.0.2" type="device">
  <diagram name="Страница — 1" id="aucuDKSha7MqwbifGrvI">
    <mxGraphModel dx="1658" dy="820" grid="1" gridSize="10" guides="1" tooltips="1" connect="1" arrows="1" fold="1" page="1" pageScale="1" pageWidth="827" pageHeight="1169" math="0" shadow="0">
      <root>
        <mxCell id="0" />
        <mxCell id="1" parent="0" />
        <mxCell id="lNLlKgdx6ud1yGo5xzQg-6" style="edgeStyle=orthogonalEdgeStyle;rounded=0;orthogonalLoop=1;jettySize=auto;html=1;exitX=0.5;exitY=1;exitDx=0;exitDy=0;entryX=0.5;entryY=0;entryDx=0;entryDy=0;" edge="1" parent="1" source="lNLlKgdx6ud1yGo5xzQg-1" target="lNLlKgdx6ud1yGo5xzQg-2">
          <mxGeometry relative="1" as="geometry">
            <Array as="points">
              <mxPoint x="414" y="350" />
              <mxPoint x="270" y="350" />
            </Array>
          </mxGeometry>
        </mxCell>
        <mxCell id="lNLlKgdx6ud1yGo5xzQg-7" style="edgeStyle=orthogonalEdgeStyle;rounded=0;orthogonalLoop=1;jettySize=auto;html=1;exitX=0.5;exitY=1;exitDx=0;exitDy=0;entryX=0.5;entryY=0;entryDx=0;entryDy=0;" edge="1" parent="1" source="lNLlKgdx6ud1yGo5xzQg-1" target="lNLlKgdx6ud1yGo5xzQg-3">
          <mxGeometry relative="1" as="geometry" />
        </mxCell>
        <mxCell id="lNLlKgdx6ud1yGo5xzQg-8" style="edgeStyle=orthogonalEdgeStyle;rounded=0;orthogonalLoop=1;jettySize=auto;html=1;exitX=0.5;exitY=1;exitDx=0;exitDy=0;entryX=0.5;entryY=0;entryDx=0;entryDy=0;" edge="1" parent="1" source="lNLlKgdx6ud1yGo5xzQg-1" target="lNLlKgdx6ud1yGo5xzQg-4">
          <mxGeometry relative="1" as="geometry" />
        </mxCell>
        <mxCell id="lNLlKgdx6ud1yGo5xzQg-9" style="edgeStyle=orthogonalEdgeStyle;rounded=0;orthogonalLoop=1;jettySize=auto;html=1;exitX=0.5;exitY=1;exitDx=0;exitDy=0;entryX=0.5;entryY=0;entryDx=0;entryDy=0;" edge="1" parent="1" source="lNLlKgdx6ud1yGo5xzQg-1" target="lNLlKgdx6ud1yGo5xzQg-5">
          <mxGeometry relative="1" as="geometry" />
        </mxCell>
        <mxCell id="lNLlKgdx6ud1yGo5xzQg-1" value="Автоматизированная тестовая система" style="rounded=0;whiteSpace=wrap;html=1;" vertex="1" parent="1">
          <mxGeometry x="311" y="200" width="206" height="90" as="geometry" />
        </mxCell>
        <mxCell id="lNLlKgdx6ud1yGo5xzQg-2" value="Тесты" style="rounded=0;whiteSpace=wrap;html=1;" vertex="1" parent="1">
          <mxGeometry x="210" y="410" width="120" height="60" as="geometry" />
        </mxCell>
        <mxCell id="lNLlKgdx6ud1yGo5xzQg-3" value="Студенты" style="rounded=0;whiteSpace=wrap;html=1;" vertex="1" parent="1">
          <mxGeometry x="330" y="410" width="120" height="60" as="geometry" />
        </mxCell>
        <mxCell id="lNLlKgdx6ud1yGo5xzQg-4" value="Экранные формы" style="rounded=0;whiteSpace=wrap;html=1;" vertex="1" parent="1">
          <mxGeometry x="450" y="410" width="120" height="60" as="geometry" />
        </mxCell>
        <mxCell id="lNLlKgdx6ud1yGo5xzQg-5" value="Отчеты" style="rounded=0;whiteSpace=wrap;html=1;" vertex="1" parent="1">
          <mxGeometry x="570" y="410" width="120" height="60" as="geometry" />
        </mxCell>
      </root>
    </mxGraphModel>
  </diagram>
</mxfile>
